<svg width="251" height="252" viewBox="0 0 251 252" fill="none" xmlns="http://www.w3.org/2000/svg">
<g opacity="0.1">
<path opacity="0.1" d="M249.983 245.101V251H244.599" stroke="#FF008E" stroke-miterlimit="10"/>
<path opacity="0.1" d="M234.245 251H32.4151" stroke="#FF008E" stroke-miterlimit="10" stroke-dasharray="5.77 5.77"/>
<path opacity="0.1" d="M27.247 251H21.8634V245.101" stroke="#FF008E" stroke-miterlimit="10"/>
<path opacity="0.1" d="M21.8634 233.753V12.583" stroke="#FF008E" stroke-miterlimit="10" stroke-dasharray="5.77 5.77"/>
<path opacity="0.1" d="M21.8633 6.89946V1H27.2468" stroke="#FF008E" stroke-miterlimit="10"/>
<path opacity="0.1" d="M37.5834 1H239.431" stroke="#FF008E" stroke-miterlimit="10" stroke-dasharray="5.77 5.77"/>
<path opacity="0.1" d="M244.599 1H249.983V6.89946" stroke="#FF008E" stroke-miterlimit="10"/>
<path opacity="0.1" d="M249.982 18.2471V239.418" stroke="#FF008E" stroke-miterlimit="10" stroke-dasharray="5.77 5.77"/>
</g>
<path opacity="0.8" d="M135.151 44.2627L73.9014 88.743V88.8268L121.263 123.204L135.151 113.1V44.2627Z" fill="#FF008E"/>
<path opacity="0.8" d="M73.9014 157.707L135.151 202.145V133.308L121.263 123.204L73.9014 157.581V157.707Z" fill="#FF008E"/>
<path opacity="0.8" d="M202.405 89.8358L141.157 45.3555V114.193L155.082 124.296L202.405 89.9196V89.8358Z" fill="#FF008E"/>
<path opacity="0.8" d="M141.157 203.234L202.405 158.753V158.669L155.082 124.292L141.157 134.395V203.234Z" fill="#FF008E"/>
<path opacity="0.8" d="M73.9014 88.8281V157.582L121.263 123.205L73.9014 88.8281Z" fill="#DAEAF6"/>
<path opacity="0.8" d="M202.408 158.669V89.915L155.083 124.292L202.408 158.669Z" fill="#DAEAF6"/>
</svg>
