<svg width="201" height="202" viewBox="0 0 201 202" fill="none" xmlns="http://www.w3.org/2000/svg">
<path d="M200 5.29199H0V191.558H200V5.29199Z" fill="#0D8ABC"/>
<g opacity="0.1">
<path opacity="0.1" d="M199.986 196.28V201H195.679" stroke="#FF008E" stroke-miterlimit="10"/>
<path opacity="0.1" d="M187.396 201H25.9321" stroke="#FF008E" stroke-miterlimit="10" stroke-dasharray="5.77 5.77"/>
<path opacity="0.1" d="M21.7976 201H17.4908V196.28" stroke="#FF008E" stroke-miterlimit="10"/>
<path opacity="0.1" d="M17.4908 187.203V10.2666" stroke="#FF008E" stroke-miterlimit="10" stroke-dasharray="5.77 5.77"/>
<path opacity="0.1" d="M17.4906 5.71957V1H21.7974" stroke="#FF008E" stroke-miterlimit="10"/>
<path opacity="0.1" d="M30.0667 1H191.544" stroke="#FF008E" stroke-miterlimit="10" stroke-dasharray="5.77 5.77"/>
<path opacity="0.1" d="M195.679 1H199.986V5.71957" stroke="#FF008E" stroke-miterlimit="10"/>
<path opacity="0.1" d="M199.986 14.7979V191.734" stroke="#FF008E" stroke-miterlimit="10" stroke-dasharray="5.77 5.77"/>
</g>
<path opacity="0.8" d="M108.12 35.6104L59.1211 71.1946V71.2616L97.0107 98.7632L108.12 90.6803V35.6104Z" fill="#FF008E"/>
<path opacity="0.8" d="M59.1211 126.365L108.12 161.916V106.846L97.0107 98.7632L59.1211 126.265V126.365Z" fill="#FF008E"/>
<path opacity="0.8" d="M161.924 72.0682L112.926 36.4839V91.5538L124.066 99.6366L161.924 72.1352V72.0682Z" fill="#FF008E"/>
<path opacity="0.8" d="M112.926 162.787L161.924 127.202V127.135L124.066 99.6338L112.926 107.717V162.787Z" fill="#FF008E"/>
<path opacity="0.8" d="M59.1211 71.2627V126.266L97.0107 98.7641L59.1211 71.2627Z" fill="#DAEAF6"/>
<path opacity="0.8" d="M161.926 127.135V72.1318L124.067 99.6334L161.926 127.135Z" fill="#DAEAF6"/>
</svg>
